<svg width="46" height="55" viewBox="0 0 46 55" fill="none" xmlns="http://www.w3.org/2000/svg">
<path d="M45.6439 47.9601C45.6439 49.1127 44.7097 50.0469 43.5571 50.0469H41.4703V52.1337C41.4703 53.2863 40.5361 54.2205 39.3835 54.2205C38.231 54.2205 37.2968 53.2863 37.2968 52.1337V50.0469H35.21C34.0574 50.0469 33.1232 49.1127 33.1232 47.9601C33.1232 46.8076 34.0574 45.8733 35.21 45.8733H37.2968V43.7865C37.2968 42.634 38.231 41.6997 39.3835 41.6997C40.5361 41.6997 41.4703 42.634 41.4703 43.7865V45.8733H43.5571C44.7097 45.8733 45.6439 46.8076 45.6439 47.9601ZM45.6439 15.4061V35.4393C45.6439 36.5919 44.7097 37.5261 43.5571 37.5261C42.4046 37.5261 41.4703 36.5919 41.4703 35.4393V17.4929H37.2968V23.7533C37.2968 24.9058 36.3625 25.84 35.21 25.84C34.0574 25.84 33.1232 24.9058 33.1232 23.7533V17.4929H13.0899V23.7533C13.0899 24.9058 12.1556 25.84 11.0031 25.84C9.85055 25.84 8.91629 24.9058 8.91629 23.7533V17.4929H4.74269V50.0469H26.8628C28.0153 50.0469 28.9496 50.9812 28.9496 52.1337C28.9496 53.2863 28.0153 54.2205 26.8628 54.2205H2.65589C1.50335 54.2205 0.569092 53.2863 0.569092 52.1337V15.4061C0.569092 14.2535 1.50335 13.3193 2.65589 13.3193H9.01499C9.84397 6.27871 15.8469 0.798462 23.1065 0.798462C30.3662 0.798462 36.3691 6.27871 37.198 13.3193H43.5571C44.7097 13.3193 45.6439 14.2535 45.6439 15.4061ZM32.9832 13.3193C32.1861 8.58796 28.0609 4.97206 23.1065 4.97206C18.1521 4.97206 14.027 8.58796 13.2298 13.3193H32.9832Z" fill="#2B463C"/>
</svg>
