<svg width="30" height="30" viewBox="0 0 30 30" fill="none" xmlns="http://www.w3.org/2000/svg">
<path fill-rule="evenodd" clip-rule="evenodd" d="M9.83331 0H20.8333C25.8952 0 30 4.10483 30 9.16667V20.1667C30 25.2285 25.8952 29.3333 20.8333 29.3333H9.83331C4.77146 29.3333 0.666626 25.2285 0.666626 20.1667V9.16667C0.666626 4.10483 4.77146 0 9.83331 0ZM20.8334 26.5833C24.3717 26.5833 27.25 23.705 27.25 20.1667V9.16667C27.25 5.62833 24.3717 2.75 20.8334 2.75H9.83341C6.29509 2.75 3.41676 5.62833 3.41676 9.16667V20.1667C3.41676 23.705 6.29509 26.5833 9.83341 26.5833H20.8334Z" fill="white"/>
<path fill-rule="evenodd" clip-rule="evenodd" d="M8 14.6668C8 10.617 11.2835 7.3335 15.3333 7.3335C19.3831 7.3335 22.6666 10.617 22.6666 14.6668C22.6666 18.7167 19.3831 22.0002 15.3333 22.0002C11.2835 22.0002 8 18.7167 8 14.6668ZM10.75 14.6668C10.75 17.1932 12.807 19.2502 15.3334 19.2502C17.8597 19.2502 19.9168 17.1932 19.9168 14.6668C19.9168 12.1387 17.8597 10.0835 15.3334 10.0835C12.807 10.0835 10.75 12.1387 10.75 14.6668Z" fill="white"/>
<ellipse cx="23.2166" cy="6.78332" rx="0.977234" ry="0.977167" fill="white"/>
</svg>
