<svg width="25" height="25" viewBox="0 0 25 25" fill="none" xmlns="http://www.w3.org/2000/svg">
<path d="M1.92285 7.81252V23.4375C1.92285 24.2969 2.78824 25 3.84593 25H21.1536C22.2113 25 23.0767 24.2969 23.0767 23.4375V7.81252H1.92285ZM7.69209 21.875H5.76901V10.9375H7.69209V21.875ZM11.5382 21.875H9.61517V10.9375H11.5382V21.875ZM15.3844 21.875H13.4613V10.9375H15.3844V21.875ZM19.2306 21.875H17.3075V10.9375H19.2306V21.875Z" fill="#2B463C"/>
<path d="M23.5577 3.125H17.3077V1.17188C17.3062 0.861456 17.1537 0.564101 16.8836 0.344598C16.6134 0.125096 16.2474 0.00123429 15.8654 0L9.13461 0C8.75256 0.00123429 8.38658 0.125096 8.11643 0.344598C7.84627 0.564101 7.69383 0.861456 7.69231 1.17188V3.125H1.44231C1.0601 3.12583 0.693829 3.24956 0.423563 3.46915C0.153298 3.68874 0.00101518 3.98633 0 4.29688V6.25001H25V4.29688C24.999 3.98633 24.8467 3.68874 24.5764 3.46915C24.3062 3.24956 23.9399 3.12583 23.5577 3.125ZM15.3846 3.125H9.61538V1.58281H15.3846V3.125Z" fill="#2B463C"/>
</svg>
