<svg width="30" height="25" viewBox="0 0 30 25" fill="none" xmlns="http://www.w3.org/2000/svg">
<path d="M29.3334 3.488C28.2425 3.9665 27.0802 4.28367 25.8684 4.43767C27.115 3.69334 28.0665 2.52367 28.5139 1.11384C27.3515 1.80684 26.0682 2.29634 24.7005 2.5695C23.5969 1.39434 22.0239 0.666504 20.3079 0.666504C16.9785 0.666504 14.2982 3.36884 14.2982 6.68167C14.2982 7.15834 14.3385 7.61667 14.4375 8.053C9.43801 7.80917 5.01417 5.413 2.04234 1.76284C1.5235 2.663 1.21917 3.69334 1.21917 4.8025C1.21917 6.88517 2.29167 8.73134 3.89034 9.80017C2.92417 9.78184 1.97634 9.50134 1.17333 9.0595C1.17333 9.07784 1.17333 9.10167 1.17333 9.1255C1.17333 12.0478 3.25784 14.4752 5.99134 15.0343C5.50184 15.1682 4.96834 15.2323 4.41467 15.2323C4.02967 15.2323 3.641 15.2103 3.27617 15.1297C4.05534 17.5112 6.26634 19.262 8.89535 19.3188C6.84934 20.9193 4.25151 21.8837 1.43917 21.8837C0.946001 21.8837 0.473001 21.8617 0 21.8012C2.66384 23.519 5.82084 24.4998 9.22535 24.4998C20.2914 24.4998 26.3414 15.3332 26.3414 7.3875C26.3414 7.12167 26.3322 6.865 26.3194 6.61017C27.5129 5.76317 28.5157 4.70534 29.3334 3.488Z" fill="white"/>
</svg>
